<svg width="44" height="44" viewBox="0 0 44 44" fill="none" xmlns="http://www.w3.org/2000/svg">
<path d="M33 7.33332H31.1667V5.49999C31.1667 5.01376 30.9735 4.54744 30.6297 4.20363C30.2859 3.85981 29.8196 3.66666 29.3333 3.66666C28.8471 3.66666 28.3808 3.85981 28.037 4.20363C27.6932 4.54744 27.5 5.01376 27.5 5.49999V7.33332H16.5V5.49999C16.5 5.01376 16.3068 4.54744 15.963 4.20363C15.6192 3.85981 15.1529 3.66666 14.6667 3.66666C14.1804 3.66666 13.7141 3.85981 13.3703 4.20363C13.0265 4.54744 12.8333 5.01376 12.8333 5.49999V7.33332H11C9.54131 7.33332 8.14236 7.91279 7.11091 8.94424C6.07946 9.97569 5.5 11.3746 5.5 12.8333V34.8333C5.5 36.292 6.07946 37.691 7.11091 38.7224C8.14236 39.7539 9.54131 40.3333 11 40.3333H33C34.4587 40.3333 35.8576 39.7539 36.8891 38.7224C37.9205 37.691 38.5 36.292 38.5 34.8333V12.8333C38.5 11.3746 37.9205 9.97569 36.8891 8.94424C35.8576 7.91279 34.4587 7.33332 33 7.33332ZM11 11H12.8333V12.8333C12.8333 13.3196 13.0265 13.7859 13.3703 14.1297C13.7141 14.4735 14.1804 14.6667 14.6667 14.6667C15.1529 14.6667 15.6192 14.4735 15.963 14.1297C16.3068 13.7859 16.5 13.3196 16.5 12.8333V11H27.5V12.8333C27.5 13.3196 27.6932 13.7859 28.037 14.1297C28.3808 14.4735 28.8471 14.6667 29.3333 14.6667C29.8196 14.6667 30.2859 14.4735 30.6297 14.1297C30.9735 13.7859 31.1667 13.3196 31.1667 12.8333V11H33C33.4862 11 33.9525 11.1931 34.2964 11.537C34.6402 11.8808 34.8333 12.3471 34.8333 12.8333V20.1667H9.16667V12.8333C9.16667 12.3471 9.35982 11.8808 9.70364 11.537C10.0475 11.1931 10.5138 11 11 11ZM33 36.6667H11C10.5138 36.6667 10.0475 36.4735 9.70364 36.1297C9.35982 35.7859 9.16667 35.3196 9.16667 34.8333V23.8333H34.8333V34.8333C34.8333 35.3196 34.6402 35.7859 34.2964 36.1297C33.9525 36.4735 33.4862 36.6667 33 36.6667Z" fill="white"/>
<path d="M14.6667 31.1667C15.6792 31.1667 16.5 30.3459 16.5 29.3333C16.5 28.3208 15.6792 27.5 14.6667 27.5C13.6542 27.5 12.8333 28.3208 12.8333 29.3333C12.8333 30.3459 13.6542 31.1667 14.6667 31.1667Z" fill="white"/>
<path d="M29.3333 27.5H22C21.5138 27.5 21.0474 27.6932 20.7036 28.037C20.3598 28.3808 20.1667 28.8471 20.1667 29.3333C20.1667 29.8196 20.3598 30.2859 20.7036 30.6297C21.0474 30.9735 21.5138 31.1667 22 31.1667H29.3333C29.8195 31.1667 30.2859 30.9735 30.6297 30.6297C30.9735 30.2859 31.1667 29.8196 31.1667 29.3333C31.1667 28.8471 30.9735 28.3808 30.6297 28.037C30.2859 27.6932 29.8195 27.5 29.3333 27.5Z" fill="white"/>
</svg>
