<svg width="44" height="44" viewBox="0 0 44 44" fill="none" xmlns="http://www.w3.org/2000/svg">
<path d="M22 23.8333C23.0125 23.8333 23.8333 23.0125 23.8333 22C23.8333 20.9875 23.0125 20.1667 22 20.1667C20.9875 20.1667 20.1667 20.9875 20.1667 22C20.1667 23.0125 20.9875 23.8333 22 23.8333Z" fill="white"/>
<path d="M29.3333 23.8333C30.3459 23.8333 31.1667 23.0125 31.1667 22C31.1667 20.9875 30.3459 20.1667 29.3333 20.1667C28.3208 20.1667 27.5 20.9875 27.5 22C27.5 23.0125 28.3208 23.8333 29.3333 23.8333Z" fill="white"/>
<path d="M14.6667 23.8333C15.6792 23.8333 16.5 23.0125 16.5 22C16.5 20.9875 15.6792 20.1667 14.6667 20.1667C13.6542 20.1667 12.8333 20.9875 12.8333 22C12.8333 23.0125 13.6542 23.8333 14.6667 23.8333Z" fill="white"/>
<path d="M34.9617 9.03836C31.9536 6.01062 27.9833 4.12725 23.7355 3.71297C19.4876 3.29869 15.2283 4.37946 11.6919 6.76894C8.15544 9.15842 5.5635 12.7069 4.3629 16.8026C3.16231 20.8982 3.42829 25.2844 5.115 29.205C5.2908 29.5694 5.34848 29.9796 5.28 30.3784L3.66667 38.1334C3.60451 38.4307 3.61721 38.7388 3.70361 39.03C3.79001 39.3212 3.94741 39.5864 4.16167 39.8017C4.33731 39.9761 4.54644 40.1131 4.77645 40.2044C5.00646 40.2958 5.25259 40.3397 5.5 40.3334H5.86667L13.7133 38.7567C14.1121 38.7087 14.5166 38.7656 14.8867 38.9217C18.8073 40.6084 23.1935 40.8744 27.2892 39.6738C31.3848 38.4732 34.9333 35.8813 37.3228 32.3448C39.7122 28.8084 40.793 24.5491 40.3787 20.3012C39.9644 16.0534 38.0811 12.0831 35.0533 9.07503L34.9617 9.03836ZM36.4833 24.365C36.1249 26.554 35.2746 28.6332 33.9965 30.446C32.7184 32.2589 31.0458 33.7583 29.1044 34.8313C27.1631 35.9043 25.0037 36.523 22.7887 36.6409C20.5738 36.7587 18.3609 36.3726 16.3167 35.5117C15.5917 35.2033 14.8128 35.0413 14.025 35.035C13.6808 35.0374 13.3375 35.0681 12.9983 35.1267L7.82834 36.1717L8.87334 31.0017C9.08147 29.882 8.9473 28.7256 8.48834 27.6834C7.62739 25.6391 7.24131 23.4263 7.35917 21.2113C7.47703 18.9963 8.09575 16.8369 9.16877 14.8956C10.2418 12.9543 11.7411 11.2816 13.554 10.0035C15.3669 8.72541 17.446 7.87514 19.635 7.5167C21.9327 7.13961 24.2871 7.31498 26.5035 8.02831C28.72 8.74163 30.7348 9.97242 32.3812 11.6188C34.0276 13.2653 35.2584 15.28 35.9717 17.4965C36.6851 19.7129 36.8604 22.0674 36.4833 24.365Z" fill="white"/>
</svg>
