<svg width="44" height="44" viewBox="0 0 44 44" fill="none" xmlns="http://www.w3.org/2000/svg">
<path d="M23.7233 40.3333H20.2583C19.4415 40.3333 18.658 40.0088 18.0804 39.4312C17.5028 38.8536 17.1783 38.0702 17.1783 37.2533V35.255C17.1684 35.1373 17.1252 35.0248 17.0538 34.9306C16.9824 34.8365 16.8857 34.7646 16.775 34.7233C16.6628 34.6515 16.5324 34.6133 16.3992 34.6133C16.2659 34.6133 16.1355 34.6515 16.0233 34.7233L14.6667 36.19C14.3821 36.4766 14.0436 36.704 13.6708 36.8592C13.2979 37.0144 12.898 37.0943 12.4942 37.0943C12.0903 37.0943 11.6904 37.0144 11.3176 36.8592C10.9447 36.704 10.6062 36.4766 10.3217 36.19L7.80999 33.7333C7.51926 33.4493 7.28836 33.11 7.13092 32.7353C6.97348 32.3605 6.8927 31.9581 6.89332 31.5517C6.8945 30.7203 7.22395 29.923 7.80999 29.3333L9.16666 27.9767C9.23215 27.8757 9.26701 27.7579 9.26701 27.6375C9.26701 27.5171 9.23215 27.3993 9.16666 27.2983C9.05666 27.0233 8.87332 26.8217 8.61666 26.8217H6.74666C5.92811 26.8168 5.14474 26.4883 4.56765 25.9077C3.99056 25.3272 3.66664 24.5419 3.66666 23.7233V20.2583C3.66666 19.4415 3.99116 18.6581 4.56877 18.0804C5.14638 17.5028 5.92979 17.1783 6.74666 17.1783H8.74499C8.86272 17.1684 8.97521 17.1252 9.06934 17.0538C9.16348 16.9824 9.23537 16.8857 9.27666 16.775C9.34853 16.6628 9.38673 16.5324 9.38673 16.3992C9.38673 16.2659 9.34853 16.1355 9.27666 16.0233L7.80999 14.6667C7.52341 14.3821 7.29597 14.0436 7.14076 13.6708C6.98555 13.2979 6.90565 12.898 6.90565 12.4942C6.90565 12.0903 6.98555 11.6904 7.14076 11.3176C7.29597 10.9447 7.52341 10.6062 7.80999 10.3217L10.2667 7.81001C10.5479 7.52065 10.8842 7.29049 11.2557 7.13306C11.6272 6.97563 12.0265 6.89413 12.43 6.89334C12.8448 6.89152 13.2558 6.97155 13.6396 7.12885C14.0234 7.28614 14.3725 7.51762 14.6667 7.81001L16.0233 9.16667C16.1243 9.23217 16.2421 9.26702 16.3625 9.26702C16.4829 9.26702 16.6007 9.23217 16.7017 9.16667C16.9767 9.05667 17.1783 8.87334 17.1783 8.61667V6.74667C17.1832 5.92812 17.5117 5.14475 18.0923 4.56766C18.6728 3.99057 19.4581 3.66666 20.2767 3.66667H23.8333C24.6502 3.66667 25.4336 3.99117 26.0112 4.56878C26.5888 5.14639 26.9133 5.92981 26.9133 6.74667V8.745C26.9233 8.86274 26.9664 8.97523 27.0378 9.06936C27.1093 9.16349 27.2059 9.23539 27.3167 9.27667C27.4288 9.34854 27.5593 9.38674 27.6925 9.38674C27.8257 9.38674 27.9561 9.34854 28.0683 9.27667L29.3333 7.81001C29.6179 7.52343 29.9564 7.29598 30.3292 7.14078C30.7021 6.98557 31.102 6.90566 31.5058 6.90566C31.9097 6.90566 32.3096 6.98557 32.6824 7.14078C33.0553 7.29598 33.3937 7.52343 33.6783 7.81001L36.19 10.2667C36.4799 10.5513 36.7102 10.8908 36.8676 11.2654C37.025 11.6399 37.1063 12.0421 37.1067 12.4483C37.1155 12.8614 37.0386 13.2718 36.8808 13.6536C36.7231 14.0354 36.4878 14.3804 36.19 14.6667L34.8333 16.0233C34.7678 16.1243 34.733 16.2421 34.733 16.3625C34.733 16.4829 34.7678 16.6007 34.8333 16.7017C34.9433 16.9767 35.1267 17.1783 35.3833 17.1783H37.3817C38.1777 17.2161 38.9286 17.5591 39.4783 18.1361C40.028 18.7131 40.3342 19.4797 40.3333 20.2767V23.8333C40.3333 24.6502 40.0088 25.4336 39.4312 26.0112C38.8536 26.5888 38.0702 26.9133 37.2533 26.9133H35.255C35.1373 26.9233 35.0248 26.9665 34.9306 27.0379C34.8365 27.1093 34.7646 27.206 34.7233 27.3167C34.6578 27.4177 34.623 27.5355 34.623 27.6558C34.623 27.7762 34.6578 27.894 34.7233 27.995L36.135 29.4067C36.4216 29.6912 36.649 30.0297 36.8042 30.4026C36.9594 30.7754 37.0393 31.1753 37.0393 31.5792C37.0393 31.983 36.9594 32.3829 36.8042 32.7558C36.649 33.1286 36.4216 33.4671 36.135 33.7517L33.7333 36.19C33.4521 36.4794 33.1158 36.7095 32.7443 36.867C32.3728 37.0244 31.9735 37.1059 31.57 37.1067C30.7513 37.0959 29.969 36.7672 29.3883 36.19L27.9767 34.8333C27.8757 34.7678 27.7579 34.733 27.6375 34.733C27.5171 34.733 27.3993 34.7678 27.2983 34.8333C27.0233 34.9433 26.8217 35.1267 26.8217 35.3833V37.3817C26.7839 38.1777 26.4409 38.9286 25.8639 39.4783C25.2869 40.028 24.5203 40.3342 23.7233 40.3333ZM20.845 36.6667H23.155V35.255C23.1628 34.4096 23.4213 33.5855 23.8978 32.8871C24.3743 32.1886 25.0473 31.6473 25.8317 31.3317C26.6192 30.9874 27.4914 30.8855 28.3371 31.039C29.1828 31.1925 29.9636 31.5943 30.58 32.1933L31.57 33.1833L33.1833 31.57L32.1933 30.5617C31.5981 29.9546 31.1967 29.1844 31.04 28.3488C30.8833 27.5131 30.9784 26.6498 31.3133 25.8683C31.6318 25.0874 32.1744 24.4183 32.8725 23.9452C33.5707 23.4721 34.3933 23.2163 35.2367 23.21H36.6667V20.845H35.255C34.4096 20.8372 33.5854 20.5787 32.887 20.1022C32.1886 19.6257 31.6473 18.9527 31.3317 18.1683C30.9874 17.3808 30.8855 16.5086 31.039 15.6629C31.1924 14.8172 31.5943 14.0364 32.1933 13.42L33.1833 12.43L31.57 10.8167L30.5617 11.8067C29.9452 12.3698 29.1806 12.7451 28.358 12.8883C27.5354 13.0314 26.689 12.9366 25.9184 12.6149C25.1479 12.2932 24.4853 11.7581 24.0087 11.0725C23.5322 10.3868 23.2614 9.57933 23.2283 8.745V7.33334H20.845V8.745C20.8372 9.59044 20.5787 10.4145 20.1022 11.113C19.6257 11.8114 18.9527 12.3527 18.1683 12.6683C17.3808 13.0126 16.5085 13.1145 15.6629 12.961C14.8172 12.8075 14.0364 12.4057 13.42 11.8067L12.43 10.8167L10.8167 12.43L11.8067 13.4383C12.3698 14.0548 12.745 14.8194 12.8882 15.642C13.0314 16.4646 12.9366 17.311 12.6149 18.0816C12.2932 18.8521 11.758 19.5147 11.0724 19.9912C10.3868 20.4678 9.57932 20.7386 8.74499 20.7717H7.33332V23.0817H8.74499C9.59043 23.0895 10.4145 23.348 11.1129 23.8245C11.8114 24.301 12.3527 24.974 12.6683 25.7583C13.0126 26.5459 13.1145 27.4181 12.961 28.2638C12.8075 29.1095 12.4057 29.8903 11.8067 30.5067L10.8167 31.4967L12.43 33.11L13.4383 32.12C14.0548 31.5569 14.8194 31.1816 15.642 31.0384C16.4646 30.8952 17.311 30.9901 18.0816 31.3118C18.8521 31.6335 19.5146 32.1686 19.9912 32.8542C20.4678 33.5398 20.7386 34.3473 20.7717 35.1817L20.845 36.6667Z" fill="white"/>
<path d="M22 28.4167C20.7309 28.4167 19.4903 28.0403 18.4351 27.3353C17.3799 26.6302 16.5574 25.628 16.0718 24.4556C15.5861 23.2831 15.4591 21.9929 15.7066 20.7482C15.9542 19.5035 16.5654 18.3601 17.4627 17.4627C18.3601 16.5653 19.5035 15.9542 20.7482 15.7066C21.9929 15.459 23.2831 15.5861 24.4556 16.0718C25.6281 16.5574 26.6302 17.3799 27.3353 18.4351C28.0404 19.4903 28.4167 20.7309 28.4167 22C28.4167 23.7018 27.7406 25.3339 26.5373 26.5373C25.3339 27.7406 23.7018 28.4167 22 28.4167ZM22 19.25C21.4561 19.25 20.9244 19.4113 20.4722 19.7135C20.02 20.0156 19.6675 20.4451 19.4593 20.9476C19.2512 21.4501 19.1967 22.0031 19.3029 22.5365C19.409 23.0699 19.6709 23.5599 20.0555 23.9445C20.4401 24.3291 20.9301 24.5911 21.4635 24.6972C21.997 24.8033 22.5499 24.7488 23.0524 24.5407C23.5549 24.3325 23.9844 23.9801 24.2866 23.5278C24.5887 23.0756 24.75 22.5439 24.75 22C24.75 21.2707 24.4603 20.5712 23.9446 20.0555C23.4288 19.5397 22.7294 19.25 22 19.25Z" fill="white"/>
</svg>
