<svg width="44" height="44" viewBox="0 0 44 44" fill="none" xmlns="http://www.w3.org/2000/svg">
<path d="M16.5 20.1667C17.9504 20.1667 19.3682 19.7366 20.5742 18.9308C21.7801 18.125 22.7201 16.9797 23.2751 15.6397C23.8301 14.2997 23.9754 12.8252 23.6924 11.4027C23.4095 9.98015 22.711 8.67347 21.6854 7.64789C20.6599 6.6223 19.3532 5.92387 17.9307 5.64091C16.5081 5.35795 15.0336 5.50318 13.6936 6.05822C12.3537 6.61326 11.2083 7.55319 10.4025 8.75915C9.59675 9.96512 9.16666 11.3829 9.16666 12.8333C9.16666 14.7783 9.93927 16.6435 11.3145 18.0188C12.6898 19.3941 14.5551 20.1667 16.5 20.1667ZM16.5 9.16667C17.2252 9.16667 17.9341 9.38172 18.5371 9.78461C19.1401 10.1875 19.61 10.7602 19.8875 11.4302C20.1651 12.1002 20.2377 12.8374 20.0962 13.5487C19.9547 14.2599 19.6055 14.9133 19.0927 15.4261C18.5799 15.9389 17.9266 16.2881 17.2153 16.4295C16.5041 16.571 15.7668 16.4984 15.0968 16.2209C14.4268 15.9434 13.8542 15.4734 13.4513 14.8704C13.0484 14.2674 12.8333 13.5585 12.8333 12.8333C12.8333 11.8609 13.2196 10.9282 13.9073 10.2406C14.5949 9.55298 15.5275 9.16667 16.5 9.16667Z" fill="white"/>
<path d="M31.1667 23.8333C32.2545 23.8333 33.3178 23.5108 34.2223 22.9064C35.1268 22.3021 35.8317 21.4431 36.248 20.4381C36.6643 19.4331 36.7732 18.3272 36.561 17.2603C36.3488 16.1935 35.8249 15.2134 35.0557 14.4443C34.2866 13.6751 33.3065 13.1512 32.2397 12.939C31.1728 12.7268 30.0669 12.8357 29.0619 13.252C28.0569 13.6683 27.1979 14.3732 26.5936 15.2777C25.9892 16.1822 25.6667 17.2455 25.6667 18.3333C25.6667 19.792 26.2461 21.191 27.2776 22.2224C28.309 23.2539 29.708 23.8333 31.1667 23.8333ZM31.1667 16.5C31.5293 16.5 31.8837 16.6075 32.1852 16.809C32.4867 17.0104 32.7217 17.2968 32.8604 17.6318C32.9992 17.9668 33.0355 18.3354 32.9648 18.691C32.894 19.0466 32.7194 19.3733 32.463 19.6297C32.2066 19.8861 31.88 20.0607 31.5243 20.1315C31.1687 20.2022 30.8001 20.1659 30.4651 20.0271C30.1301 19.8884 29.8437 19.6534 29.6423 19.3519C29.4408 19.0504 29.3333 18.6959 29.3333 18.3333C29.3333 17.8471 29.5265 17.3808 29.8703 17.037C30.2141 16.6932 30.6804 16.5 31.1667 16.5Z" fill="white"/>
<path d="M31.1667 25.6667C29.135 25.6689 27.1617 26.346 25.5567 27.5917C23.7609 25.803 21.4758 24.5861 18.9893 24.0944C16.5029 23.6028 13.9266 23.8584 11.5852 24.8291C9.2439 25.7997 7.24241 27.4419 5.83318 29.5486C4.42395 31.6553 3.67009 34.1321 3.66666 36.6667C3.66666 37.1529 3.85981 37.6192 4.20363 37.963C4.54744 38.3068 5.01376 38.5 5.49999 38.5C5.98622 38.5 6.45254 38.3068 6.79635 37.963C7.14017 37.6192 7.33332 37.1529 7.33332 36.6667C7.33332 34.2355 8.29909 31.9039 10.0182 30.1848C11.7373 28.4658 14.0688 27.5 16.5 27.5C18.9311 27.5 21.2627 28.4658 22.9818 30.1848C24.7009 31.9039 25.6667 34.2355 25.6667 36.6667C25.6667 37.1529 25.8598 37.6192 26.2036 37.963C26.5474 38.3068 27.0138 38.5 27.5 38.5C27.9862 38.5 28.4525 38.3068 28.7964 37.963C29.1402 37.6192 29.3333 37.1529 29.3333 36.6667C29.3377 34.5188 28.7951 32.4052 27.7567 30.525C28.5669 29.8848 29.5409 29.4856 30.5674 29.373C31.5939 29.2605 32.6313 29.4393 33.5609 29.8888C34.4906 30.3383 35.2749 31.0404 35.8241 31.9149C36.3734 32.7893 36.6654 33.8007 36.6667 34.8333C36.6667 35.3196 36.8598 35.7859 37.2036 36.1297C37.5474 36.4735 38.0138 36.6667 38.5 36.6667C38.9862 36.6667 39.4525 36.4735 39.7964 36.1297C40.1402 35.7859 40.3333 35.3196 40.3333 34.8333C40.3333 32.4022 39.3676 30.0706 37.6485 28.3515C35.9294 26.6324 33.5978 25.6667 31.1667 25.6667Z" fill="white"/>
</svg>
